<?xml version="1.0" standalone="no"?>
<!DOCTYPE svg PUBLIC "-//W3C//DTD SVG 20010904//EN"
 "http://www.w3.org/TR/2001/REC-SVG-20010904/DTD/svg10.dtd">
<svg version="1.0" xmlns="http://www.w3.org/2000/svg"
 width="400.000000pt" height="400.000000pt" viewBox="0 0 400.000000 400.000000"
 preserveAspectRatio="xMidYMid meet">
<metadata>
Created by potrace 1.16, written by Peter Selinger 2001-2019
</metadata>
<g transform="translate(0.000000,400.000000) scale(0.100000,-0.100000)"
fill="#000000" stroke="none">
<path d="M2225 3805 c-48 -17 -97 -70 -113 -123 -14 -47 -2 -99 35 -142 35
-43 74 -60 132 -60 41 0 57 6 93 33 57 44 70 70 65 139 -4 69 -39 121 -101
149 -49 22 -59 22 -111 4z"/>
<path d="M1420 3733 c-109 -47 -143 -173 -69 -257 39 -45 78 -60 140 -54 62 6
97 31 127 88 28 56 28 96 -1 151 -41 77 -119 106 -197 72z"/>
<path d="M2960 3481 c-72 -22 -110 -78 -110 -161 0 -60 17 -97 60 -134 27 -23
41 -26 100 -26 64 0 72 3 106 32 105 92 77 252 -51 287 -45 12 -69 13 -105 2z"/>
<path d="M723 3304 c-105 -52 -123 -220 -31 -287 36 -27 122 -34 168 -15 89
37 124 166 67 241 -52 69 -137 94 -204 61z"/>
<path d="M2312 2941 c-9 -5 4 -11 39 -15 41 -6 59 -14 86 -41 38 -38 41 -66
13 -112 -29 -48 -52 -56 -144 -50 -62 4 -117 17 -231 56 -266 91 -396 110
-516 75 -175 -51 -277 -205 -248 -373 14 -79 51 -129 122 -166 61 -32 81 -29
48 6 -63 68 -15 185 86 207 61 14 183 -7 358 -63 192 -61 315 -93 388 -101
l57 -7 0 -121 0 -121 -90 -78 c-50 -42 -90 -81 -90 -86 0 -5 41 -46 90 -92
l90 -82 -2 -181 -3 -181 -50 -13 c-90 -23 -232 -27 -325 -8 -88 18 -189 63
-180 81 2 6 72 40 155 76 l150 66 3 373 c2 297 0 371 -10 367 -7 -3 -105 -46
-218 -97 -259 -117 -251 -114 -243 -92 32 84 147 217 223 258 52 27 15 29 -61
4 -228 -76 -400 -219 -488 -404 -42 -89 -54 -166 -49 -298 8 -179 67 -316 192
-443 195 -198 504 -279 789 -206 207 54 363 197 432 398 29 85 45 170 45 242
l-1 56 -37 -70 c-47 -89 -148 -196 -225 -240 -34 -18 -65 -31 -69 -29 -14 9
-10 328 5 345 6 9 49 48 95 89 45 40 82 76 82 80 0 4 -43 44 -95 90 l-95 83 0
117 0 118 36 7 c186 34 296 199 254 376 -11 44 -24 64 -70 110 -47 47 -68 61
-124 78 -70 22 -151 27 -174 12z m-522 -1101 c0 -227 -4 -350 -10 -350 -21 0
-91 84 -120 144 -50 102 -63 175 -57 306 8 162 14 175 101 216 39 18 74 33 79
34 4 0 7 -157 7 -350z"/>
<path d="M3466 2846 c-80 -30 -123 -99 -113 -183 12 -111 161 -171 255 -103
52 37 72 76 72 137 0 110 -110 186 -214 149z"/>
<path d="M348 2608 c-82 -22 -136 -128 -108 -212 14 -43 83 -105 119 -108 84
-6 132 12 176 64 25 29 27 38 23 99 -3 54 -9 73 -32 104 -45 59 -98 74 -178
53z"/>
<path d="M3582 2141 c-49 -31 -72 -76 -72 -141 0 -65 23 -110 72 -141 27 -16
46 -19 97 -16 60 3 66 6 102 44 22 24 40 55 44 77 11 58 -3 104 -44 149 -36
38 -42 41 -102 44 -51 3 -70 0 -97 -16z"/>
<path d="M320 1798 c-69 -19 -110 -78 -110 -156 0 -57 27 -104 80 -140 29 -20
44 -23 93 -20 51 4 62 9 97 43 29 29 42 52 51 91 11 49 10 57 -12 101 -18 36
-36 54 -69 71 -47 24 -75 26 -130 10z"/>
<path d="M3420 1374 c-45 -20 -68 -41 -91 -86 -38 -74 -16 -158 54 -209 103
-75 252 12 252 146 0 65 -31 109 -99 141 -59 28 -69 28 -116 8z"/>
<path d="M651 1068 c-99 -53 -120 -180 -43 -262 35 -36 65 -48 126 -47 58 0
117 34 142 83 23 44 15 134 -15 176 -47 67 -139 88 -210 50z"/>
<path d="M2868 777 c-64 -29 -98 -82 -98 -155 0 -61 40 -121 99 -152 50 -25
91 -25 139 -1 47 24 66 46 82 95 42 131 -99 267 -222 213z"/>
<path d="M1324 610 c-18 -6 -48 -28 -68 -50 -32 -35 -36 -46 -36 -93 1 -127
89 -207 198 -178 109 30 162 143 112 240 -31 62 -134 102 -206 81z"/>
<path d="M2099 487 c-81 -43 -110 -136 -69 -218 22 -43 62 -72 123 -91 74 -23
163 34 186 119 15 54 14 71 -10 120 -41 85 -142 116 -230 70z"/>
</g>
</svg>
